<mxfile host="65bd71144e">
    <diagram id="0ZwW-vUITOqkvyoN0IJ5" name="Page-1">
        <mxGraphModel dx="1074" dy="456" grid="1" gridSize="10" guides="1" tooltips="1" connect="1" arrows="1" fold="1" page="1" pageScale="1" pageWidth="827" pageHeight="1169" background="#ffffff" math="0" shadow="0">
            <root>
                <mxCell id="0"/>
                <mxCell id="1" parent="0"/>
                <mxCell id="12" value="&lt;font style=&quot;font-size: 18px&quot; color=&quot;#080808&quot;&gt;&lt;b&gt;车间主控PLC&lt;/b&gt;&lt;/font&gt;" style="shape=cylinder3;whiteSpace=wrap;html=1;boundedLbl=1;backgroundOutline=1;size=15;fillColor=none;strokeColor=#0000FF;strokeWidth=3;" parent="1" vertex="1">
                    <mxGeometry x="310" y="100" width="129" height="80" as="geometry"/>
                </mxCell>
                <mxCell id="15" value="&lt;font color=&quot;#080808&quot; style=&quot;font-size: 18px&quot;&gt;&lt;b&gt;上位机&lt;/b&gt;&lt;/font&gt;&lt;span style=&quot;color: rgba(0 , 0 , 0 , 0) ; font-family: monospace ; font-size: 0px&quot;&gt;%3CmxGraphModel%3E%3Croot%3E%3CmxCell%20id%3D%220%22%2F%3E%3CmxCell%20id%3D%221%22%20parent%3D%220%22%2F%3E%3CmxCell%20id%3D%222%22%20value%3D%22%26lt%3Bfont%20color%3D%26quot%3B%23080808%26quot%3B%20style%3D%26quot%3Bfont-size%3A%2018px%26quot%3B%26gt%3B%26lt%3Bb%26gt%3B%E6%9C%BA%E5%99%A8%E4%BA%BA%26lt%3B%2Fb%26gt%3B%26lt%3B%2Ffont%26gt%3B%22%20style%3D%22shape%3Dcube%3BwhiteSpace%3Dwrap%3Bhtml%3D1%3BboundedLbl%3D1%3BbackgroundOutline%3D1%3BdarkOpacity%3D0.05%3BdarkOpacity2%3D0.1%3BstrokeColor%3D%230000FF%3BstrokeWidth%3D3%3BfillColor%3Dnone%3B%22%20vertex%3D%221%22%20parent%3D%221%22%3E%3CmxGeometry%20x%3D%22300%22%20y%3D%22230%22%20width%3D%22120%22%20height%3D%2280%22%20as%3D%22geometry%22%2F%3E%3C%2FmxCell%3E%3C%2Froot%3E%3C%2FmxGraphModel%3E&lt;/span&gt;" style="shape=cube;whiteSpace=wrap;html=1;boundedLbl=1;backgroundOutline=1;darkOpacity=0.05;darkOpacity2=0.1;strokeColor=#0000FF;strokeWidth=3;fillColor=none;" parent="1" vertex="1">
                    <mxGeometry x="499" y="230" width="120" height="80" as="geometry"/>
                </mxCell>
                <mxCell id="18" value="&lt;b&gt;机器人&lt;/b&gt;" style="shape=umlActor;verticalLabelPosition=bottom;verticalAlign=top;html=1;outlineConnect=0;fontSize=18;fontColor=#080808;strokeColor=#0000FF;strokeWidth=3;fillColor=none;" parent="1" vertex="1">
                    <mxGeometry x="169" y="210" width="60" height="100" as="geometry"/>
                </mxCell>
                <mxCell id="19" value="&lt;font size=&quot;1&quot;&gt;&lt;b style=&quot;font-size: 18px&quot;&gt;相机&lt;/b&gt;&lt;/font&gt;" style="rounded=1;whiteSpace=wrap;html=1;fontSize=12;arcSize=20;fillColor=#FAFAFA;strokeColor=#0000F5;fontColor=#030303;strokeWidth=3;" parent="1" vertex="1">
                    <mxGeometry x="509" y="380" width="120" height="60" as="geometry"/>
                </mxCell>
                <mxCell id="20" style="edgeStyle=none;html=1;entryX=0.75;entryY=0.1;entryDx=0;entryDy=0;fontSize=18;strokeColor=#050505;strokeWidth=3;exitX=0;exitY=0.5;exitDx=0;exitDy=0;exitPerimeter=0;entryPerimeter=0;" parent="1" source="12" target="18" edge="1">
                    <mxGeometry relative="1" as="geometry">
                        <mxPoint x="269" y="390" as="sourcePoint"/>
                        <mxPoint x="379" y="390" as="targetPoint"/>
                    </mxGeometry>
                </mxCell>
                <mxCell id="21" style="edgeStyle=none;html=1;entryX=1;entryY=0;entryDx=0;entryDy=52.5;fontSize=18;strokeColor=#050505;strokeWidth=3;entryPerimeter=0;exitX=0;exitY=0;exitDx=50;exitDy=0;exitPerimeter=0;" parent="1" source="15" target="12" edge="1">
                    <mxGeometry relative="1" as="geometry">
                        <mxPoint x="530" y="130" as="sourcePoint"/>
                        <mxPoint x="329" y="320" as="targetPoint"/>
                    </mxGeometry>
                </mxCell>
                <mxCell id="22" style="edgeStyle=none;html=1;entryX=0;entryY=0;entryDx=70;entryDy=80;fontSize=18;strokeColor=#050505;strokeWidth=3;entryPerimeter=0;exitX=0.5;exitY=0;exitDx=0;exitDy=0;" parent="1" source="19" target="15" edge="1">
                    <mxGeometry relative="1" as="geometry">
                        <mxPoint x="700" y="350" as="sourcePoint"/>
                        <mxPoint x="469" y="380" as="targetPoint"/>
                    </mxGeometry>
                </mxCell>
                <mxCell id="t5s5XTf1Shd5iWonTjOI-22" value="" style="rounded=1;whiteSpace=wrap;html=1;dashed=1;strokeWidth=5;strokeColor=#FF0000;fillColor=none;" parent="1" vertex="1">
                    <mxGeometry x="484" y="190" width="170" height="270" as="geometry"/>
                </mxCell>
                <mxCell id="t5s5XTf1Shd5iWonTjOI-23" value="" style="rounded=1;whiteSpace=wrap;html=1;dashed=1;strokeWidth=5;strokeColor=#009900;fillColor=none;" parent="1" vertex="1">
                    <mxGeometry x="120" y="180" width="160" height="180" as="geometry"/>
                </mxCell>
                <mxCell id="t5s5XTf1Shd5iWonTjOI-24" value="&lt;b&gt;&lt;font style=&quot;font-size: 18px&quot; color=&quot;#080808&quot;&gt;KUKA机器人运动编程KRL&lt;/font&gt;&lt;/b&gt;" style="text;html=1;strokeColor=none;fillColor=none;align=center;verticalAlign=middle;whiteSpace=wrap;rounded=0;dashed=1;" parent="1" vertex="1">
                    <mxGeometry x="109" y="380" width="180" height="30" as="geometry"/>
                </mxCell>
                <mxCell id="t5s5XTf1Shd5iWonTjOI-25" value="&lt;b&gt;&lt;font style=&quot;font-size: 18px&quot;&gt;&lt;font color=&quot;#ff0000&quot;&gt;发送使能命令&lt;/font&gt;&lt;br&gt;&lt;/font&gt;&lt;/b&gt;" style="text;html=1;strokeColor=none;fillColor=none;align=center;verticalAlign=middle;whiteSpace=wrap;rounded=0;dashed=1;" parent="1" vertex="1">
                    <mxGeometry x="450" y="110" width="210" height="80" as="geometry"/>
                </mxCell>
                <mxCell id="24" value="&lt;font color=&quot;#080808&quot;&gt;&lt;span style=&quot;font-size: 18px&quot;&gt;&lt;b&gt;使能&lt;/b&gt;&lt;/span&gt;&lt;/font&gt;" style="text;html=1;strokeColor=none;fillColor=none;align=center;verticalAlign=middle;whiteSpace=wrap;rounded=0;" parent="1" vertex="1">
                    <mxGeometry x="220" y="135" width="60" height="30" as="geometry"/>
                </mxCell>
                <mxCell id="25" style="edgeStyle=none;html=1;fontSize=18;strokeColor=#001DBC;strokeWidth=3;entryX=0;entryY=0;entryDx=0;entryDy=30;entryPerimeter=0;fillColor=#0050ef;" parent="1" target="15" edge="1">
                    <mxGeometry relative="1" as="geometry">
                        <mxPoint x="240" y="250" as="sourcePoint"/>
                        <mxPoint x="450" y="240" as="targetPoint"/>
                    </mxGeometry>
                </mxCell>
                <mxCell id="26" value="&lt;span style=&quot;font-size: 18px&quot;&gt;&lt;b&gt;&lt;font color=&quot;#0000ff&quot;&gt;传送末端位姿&lt;/font&gt;&lt;/b&gt;&lt;/span&gt;" style="text;html=1;strokeColor=none;fillColor=none;align=center;verticalAlign=middle;whiteSpace=wrap;rounded=0;" parent="1" vertex="1">
                    <mxGeometry x="309" y="210" width="130" height="30" as="geometry"/>
                </mxCell>
                <mxCell id="27" style="edgeStyle=none;html=1;fontSize=18;strokeColor=#001DBC;strokeWidth=3;fillColor=#0050ef;exitX=-0.025;exitY=0.675;exitDx=0;exitDy=0;exitPerimeter=0;" edge="1" parent="1" source="15">
                    <mxGeometry relative="1" as="geometry">
                        <mxPoint x="440" y="290" as="sourcePoint"/>
                        <mxPoint x="240" y="270" as="targetPoint"/>
                    </mxGeometry>
                </mxCell>
                <mxCell id="28" value="&lt;span style=&quot;font-size: 18px&quot;&gt;&lt;b&gt;&lt;font color=&quot;#0000ff&quot;&gt;发送运动控制命令&lt;/font&gt;&lt;/b&gt;&lt;/span&gt;" style="text;html=1;strokeColor=none;fillColor=none;align=center;verticalAlign=middle;whiteSpace=wrap;rounded=0;" vertex="1" parent="1">
                    <mxGeometry x="320" y="290" width="150" height="30" as="geometry"/>
                </mxCell>
            </root>
        </mxGraphModel>
    </diagram>
</mxfile>